P3
4 4
255
255 0 0 0 255 0 0 0 255 255 255 0
255 255 255 0 0 0 128 128 128 200 150 100
255 100 50 30 200 70 100 10 255 90 90 90
0 50 100 150 200 250 20 20 20 80 40 120
